HIERARCHY
ROOT Hips
{
	OFFSET 0.000000 0.000000 0.000000 
	CHANNELS 6 Xposition Yposition Zposition Yrotation Zrotation Xrotation 
	JOINT Lumbar
	{
		OFFSET 0.000000 0.000000 0.000000 
		CHANNELS 3 Zrotation Xrotation Yrotation
		JOINT Neck
		{
			OFFSET 0.000000 0.445665 0.000000 
			CHANNELS 3 Zrotation Xrotation Yrotation
			End Site
			{
				OFFSET 0.000000 0.227535 0.000000 
			}
		}
		JOINT RightShoulder
		{
			OFFSET 0.019635 0.377685 0.194865 
			CHANNELS 3 Zrotation Xrotation Yrotation
			JOINT RightElbow
			{
				OFFSET 0.000000 -0.243375 0.000000 
				CHANNELS 2 Zrotation Yrotation
				JOINT RightWrist
				{
					OFFSET 0.000000 -0.264825 0.000000 
					CHANNELS 2 Zrotation Xrotation
					End Site
					{
						OFFSET 0.006600 -0.176220 0.000990 
					}
				}
			}
		}
		JOINT LeftShoulder
		{
			OFFSET 0.019635 0.377685 -0.194865 
			CHANNELS 3 Zrotation Xrotation Yrotation
			JOINT LeftElbow
			{
				OFFSET 0.000000 -0.243375 0.000000 
				CHANNELS 2 Zrotation Yrotation
				JOINT LeftWrist
				{
					OFFSET 0.000000 -0.264825 0.000000 
					CHANNELS 2 Zrotation Xrotation
					End Site
					{
						OFFSET 0.006600 -0.176220 -0.000990 
					}
				}
			}
		}
	}
	JOINT RightHip
	{
		OFFSET 0.052140 -0.069960 0.075570 
		CHANNELS 3 Zrotation Xrotation Yrotation
		JOINT RightKnee
		{
			OFFSET 0.000000 -0.402270 0.000000 
			CHANNELS 1 Zrotation
			JOINT RightAnkle
			{
				OFFSET 0.000000 -0.404085 0.000000 
				CHANNELS 3 Zrotation Xrotation Yrotation
				End Site
				{
					OFFSET 0.204105 -0.089430 0.008415 
				}
			}
		}
	}
	JOINT LeftHip
	{
		OFFSET 0.052140 -0.069960 -0.075570 
		CHANNELS 3 Zrotation Xrotation Yrotation
		JOINT LeftKnee
		{
			OFFSET 0.000000 -0.402270 0.000000 
			CHANNELS 1 Zrotation
			JOINT LeftAnkle
			{
				OFFSET 0.000000 -0.404085 0.000000 
				CHANNELS 3 Zrotation Xrotation Yrotation
				End Site
				{
					OFFSET 0.204105 -0.089430 -0.008415 
				}
			}
		}
	}
}
MOTION
Frames: 14
Frame Time: 0.02
0.00104 0.00055 -0.00049 26.99396 -25.34486 -3.09264 49.24619 -0.26984 -4.92706 -12.44606 4.09286 -1.04242 -16.54256 -5.76808 -7.73428 19.78942 96.8815 12.29901 0.97759 -23.17686 8.18121 -1.32751 31.64274 -98.46044 13.74482 -0.67484 40.02839 -4.52918 -8.61716 -20.42784 -6.73004 -3.26256 -3.86362 43.64146 2.64458 -1.50198 -24.80653 -7.39828 3.19084 3.86208
0.00091 0.00044 -4e-05 27.01949 -25.32028 -3.10435 49.17829 -0.26778 -4.90395 -12.37717 4.18154 -1.04411 -16.50657 -5.75065 -7.81077 19.77373 97.17264 12.29779 1.03505 -23.08436 8.20311 -1.36092 31.61782 -98.35577 13.7485 -0.67849 40.02609 -4.53324 -8.77532 -20.44543 -6.72444 -3.25926 -3.85711 43.64856 2.81539 -0.84839 -24.82961 -7.37486 3.14188 3.82956
0.00078 0.00034 0.00042 27.04495 -25.29579 -3.11603 49.11055 -0.26571 -4.88094 -12.30842 4.27006 -1.04579 -16.47074 -5.73324 -7.88715 19.75823 97.46288 12.29652 1.09234 -22.99204 8.22446 -1.39259 31.59275 -98.25734 13.75361 -0.68313 40.02384 -4.53727 -8.93297 -20.46299 -6.71885 -3.25598 -3.85063 43.65568 2.98578 -0.19647 -24.85263 -7.3515 3.09302 3.79712
0.00065 0.00023 0.00087 27.0704 -25.27128 -3.1277 49.04284 -0.26366 -4.85791 -12.23972 4.35849 -1.04747 -16.43486 -5.71586 -7.96342 19.74261 97.75313 12.2953 1.14963 -22.8998 8.24619 -1.42558 31.56786 -98.15416 13.75756 -0.68697 40.02156 -4.54131 -9.09064 -20.48053 -6.71326 -3.25269 -3.84414 43.66276 3.15607 0.45516 -24.87564 -7.32815 3.0442 3.7647
0.00052 0.00012 0.00132 27.09592 -25.24669 -3.1394 48.97499 -0.26161 -4.83479 -12.17094 4.44703 -1.04915 -16.39882 -5.69845 -8.03975 19.72676 98.04426 12.29416 1.20707 -22.80744 8.2687 -1.46104 31.54321 -98.04196 13.75941 -0.68936 40.01919 -4.54542 -9.24883 -20.4981 -6.70766 -3.24939 -3.83763 43.66981 3.32675 1.10834 -24.8987 -7.30476 2.99531 3.73221
0.00039 1e-05 0.00177 27.12125 -25.22241 -3.15104 48.90749 -0.25952 -4.81202 -12.10225 4.53548 -1.05082 -16.36344 -5.68107 -8.11624 19.712 98.33261 12.29263 1.26406 -22.71522 8.28765 -1.48485 31.51728 -97.9721 13.77127 -0.69868 40.0172 -4.54927 -9.40536 -20.51564 -6.7021 -3.24614 -3.8312 43.67708 3.49652 1.75759 -24.92163 -7.28144 2.9465 3.69988
0.00026 -0.0001 0.00223 27.14695 -25.19753 -3.16279 48.83934 -0.25751 -4.78855 -12.03342 4.62404 -1.05251 -16.32674 -5.66366 -8.19231 19.69506 98.62624 12.29185 1.3219 -22.62277 8.31361 -1.53168 31.4939 -97.81874 13.76337 -0.6943 40.01447 -4.55361 -9.56501 -20.53322 -6.69647 -3.2428 -3.82461 43.68392 3.66792 2.41397 -24.9448 -7.258 2.89759 3.66726
0.00013 -0.00021 0.00268 27.17229 -25.17319 -3.17442 48.77181 -0.25542 -4.76575 -11.96476 4.71246 -1.05419 -16.29128 -5.64626 -8.26878 19.68013 98.91502 12.29042 1.37895 -22.53064 8.33332 -1.55802 31.46828 -97.73944 13.77298 -0.70207 40.01239 -4.55754 -9.72187 -20.55076 -6.69089 -3.23953 -3.81816 43.69111 3.83783 3.06391 -24.96774 -7.23467 2.84877 3.63491
-0 -0.00032 0.00313 27.19725 -25.14958 -3.18597 48.70494 -0.25324 -4.74364 -11.89609 4.80093 -1.05586 -16.25726 -5.6289 -8.34574 19.66765 99.19792 12.28803 1.43507 -22.43838 8.34448 -1.55611 31.43942 -97.76336 13.80708 -0.72679 40.01124 -4.56082 -9.87502 -20.56826 -6.68539 -3.23639 -3.8119 43.6989 4.00594 3.70575 -24.99046 -7.21146 2.80005 3.60287
-0.00014 -0.00043 0.00359 27.22457 -25.12195 -3.19821 48.63398 -0.25163 -4.71719 -11.82685 4.88979 -1.05756 -16.21473 -5.61139 -8.41992 19.64108 99.51482 12.2907 1.49667 -22.34533 8.40206 -1.70707 31.42767 -97.23168 13.70958 -0.66033 40.00515 -4.56738 -10.04863 -20.58605 -6.67951 -3.23262 -3.80463 43.70377 4.18449 4.39351 -25.01461 -7.18752 2.75071 3.56901
-0.00026 -0.00054 0.00402 27.24681 -25.10269 -3.20882 48.57185 -0.24879 -4.70015 -11.75923 4.97738 -1.0592 -16.19031 -5.59419 -8.49991 19.64422 99.75983 12.28299 1.54661 -22.25493 8.36353 -1.54184 31.38085 -97.84708 13.88361 -0.78206 40.0092 -4.56729 -10.17965 -20.60315 -6.67439 -3.23011 -3.79945 43.71445 4.34093 4.98478 -25.03563 -7.16517 2.70272 3.53899
-0.00036 -0.00063 0.00437 27.25573 -25.10749 -3.21644 48.53232 -0.24271 -4.70722 -11.69261 5.06515 -1.06074 -16.21484 -5.57798 -8.59647 19.72985 99.80657 12.24396 1.56512 -22.16377 8.04398 -0.44888 31.22844 -101.8449 14.85975 -1.4592 40.04375 -4.54626 -10.18724 -20.61904 -6.67171 -3.23181 -3.80049 43.74417 4.43676 5.30515 -25.04894 -7.14681 2.65812 3.51961
-0.00044 -0.00072 0.00468 27.25941 -25.12051 -3.22218 48.50196 -0.23538 -4.72409 -11.62834 5.15105 -1.06221 -16.25776 -5.56208 -8.69867 19.84519 99.78093 12.19501 1.57183 -22.07676 7.63137 0.94966 31.04259 -106.94776 16.09716 -2.31751 40.08802 -4.51893 -10.1528 -20.63413 -6.66973 -3.23467 -3.80357 43.77921 4.51032 5.52935 -25.05899 -7.13012 2.61497 3.50409
-0.00052 -0.0008 0.00501 27.2651 -25.12904 -3.22776 48.46842 -0.22853 -4.73757 -11.56509 5.23526 -1.06368 -16.29264 -5.54592 -8.79802 19.94622 99.78957 12.15249 1.58356 -21.99312 7.27236 2.17016 30.8781 -111.39598 17.17886 -3.06823 40.12602 -4.49636 -10.14249 -20.6491 -6.66717 -3.23647 -3.80536 43.80972 4.59408 5.80206 -25.06987 -7.11288 2.57132 3.48671
